<?xml version="1.0" standalone="no"?>
<!DOCTYPE svg PUBLIC "-//W3C//DTD SVG 20010904//EN"
 "http://www.w3.org/TR/2001/REC-SVG-20010904/DTD/svg10.dtd">
<svg version="1.0" xmlns="http://www.w3.org/2000/svg"
 width="350.000000pt" height="350.000000pt" viewBox="0 0 350.000000 350.000000"
 preserveAspectRatio="xMidYMid meet">
<metadata>
Created by potrace 1.14, written by Peter Selinger 2001-2017
</metadata>
<g transform="translate(0.000000,350.000000) scale(0.100000,-0.100000)"
fill="#000000" stroke="none">
<path d="M764 3487 c51 -32 80 -65 103 -116 14 -31 53 -114 86 -186 33 -71 88
-197 122 -280 51 -125 65 -151 84 -153 21 -3 21 -3 5 17 -10 11 -54 105 -99
208 -202 466 -234 524 -292 522 -25 0 -26 -1 -9 -12z"/>
<path d="M1218 2743 c7 -3 16 -2 19 1 4 3 -2 6 -13 5 -11 0 -14 -3 -6 -6z"/>
<path d="M1278 2733 c7 -3 16 -2 19 1 4 3 -2 6 -13 5 -11 0 -14 -3 -6 -6z"/>
<path d="M0 2665 c0 -15 6 -25 14 -25 23 0 25 13 4 33 -17 16 -18 16 -18 -8z"/>
<path d="M1878 2623 c7 -3 16 -2 19 1 4 3 -2 6 -13 5 -11 0 -14 -3 -6 -6z"/>
<path d="M1978 2603 c7 -3 16 -2 19 1 4 3 -2 6 -13 5 -11 0 -14 -3 -6 -6z"/>
<path d="M2248 2543 c6 -2 18 -2 25 0 6 3 1 5 -13 5 -14 0 -19 -2 -12 -5z"/>
<path d="M2308 2533 c7 -3 16 -2 19 1 4 3 -2 6 -13 5 -11 0 -14 -3 -6 -6z"/>
<path d="M838 2513 c7 -3 16 -2 19 1 4 3 -2 6 -13 5 -11 0 -14 -3 -6 -6z"/>
<path d="M735 2487 c-75 -16 -121 -34 -161 -64 -17 -13 -34 -20 -38 -16 -4 4
-17 -4 -30 -17 -13 -14 -35 -34 -50 -44 -14 -10 -24 -21 -22 -23 2 -2 -7 -16
-21 -31 -23 -24 -72 -119 -77 -147 -1 -5 -4 -14 -7 -20 -4 -5 -5 -28 -4 -50 1
-35 -1 -40 -21 -41 -21 -2 -22 0 -8 13 13 14 13 17 -6 30 -15 11 -19 21 -14
36 4 12 7 27 7 34 0 7 4 10 9 7 5 -3 6 -10 3 -15 -3 -5 1 -6 10 -3 12 5 13 9
4 20 -9 11 -8 18 1 29 10 12 10 19 2 27 -9 9 -12 8 -12 -3 0 -9 -11 -26 -25
-39 -13 -12 -22 -27 -19 -32 3 -5 1 -15 -5 -22 -13 -16 -3 -49 12 -39 6 3 7 1
3 -5 -5 -9 -13 -9 -27 -2 -23 13 -39 5 -39 -19 0 -30 26 -46 47 -30 15 12 16
12 10 -3 -3 -10 -3 -18 2 -18 4 0 6 -11 3 -25 -2 -14 -8 -22 -13 -19 -5 3 -6
-2 -3 -10 3 -9 11 -16 16 -16 6 0 5 -6 -2 -15 -8 -9 -9 -15 -2 -15 13 0 6 -44
-8 -48 -17 -6 -11 -38 10 -57 13 -12 17 -22 11 -34 -12 -22 -18 -80 -8 -81 29
-1 37 1 32 10 -3 6 1 7 10 4 11 -5 14 -2 8 12 -4 12 -3 15 6 10 7 -5 9 -16 5
-28 -4 -14 -2 -18 5 -14 6 4 19 2 28 -4 13 -8 13 -10 3 -7 -9 3 -23 -1 -33 -8
-16 -11 -15 -13 3 -30 15 -14 17 -21 9 -32 -10 -11 -8 -12 5 -7 10 4 15 13 12
20 -3 8 -1 14 4 14 6 0 10 -4 10 -10 0 -12 22 -9 33 5 5 6 7 1 4 -12 -3 -16
-1 -20 10 -16 8 3 12 12 9 20 -3 8 -1 11 5 8 5 -4 7 -15 4 -25 -3 -10 0 -22 6
-26 8 -4 9 -3 5 4 -14 22 6 12 34 -18 15 -16 25 -32 21 -36 -3 -4 2 -4 11 -1
10 3 20 2 23 -4 4 -5 11 -6 17 -3 8 5 9 1 4 -11 -6 -16 -4 -16 11 -4 15 12 16
12 10 -5 -6 -16 -5 -17 8 -6 12 10 15 10 15 -4 0 -9 5 -16 11 -16 5 0 7 5 3
12 -4 7 -3 8 4 4 7 -4 12 -15 12 -24 0 -15 2 -15 10 -2 7 12 10 12 10 1 0 -8
6 -11 16 -7 8 3 12 2 9 -3 -3 -5 -1 -12 5 -16 5 -3 10 -2 10 4 0 5 13 3 30 -5
16 -9 34 -13 40 -9 5 3 10 0 10 -8 0 -10 9 -13 29 -11 26 3 29 1 26 -18 -3
-11 -7 -23 -11 -27 -4 -3 -4 2 -1 12 4 9 3 17 -1 18 -40 4 -60 3 -56 -3 3 -4
12 -8 20 -8 8 0 12 -5 9 -10 -4 -6 -3 -10 2 -9 4 1 16 -1 26 -6 14 -6 15 -10
6 -15 -15 -10 20 -59 39 -52 8 2 10 -2 6 -13 -4 -10 -2 -15 7 -13 8 2 13 -2
12 -9 -2 -6 6 -15 17 -18 11 -4 18 -11 15 -16 -4 -5 4 -9 15 -9 16 0 20 -4 16
-15 -5 -15 28 -58 37 -48 8 7 19 -36 12 -47 -3 -5 1 -10 9 -10 9 0 16 -4 16
-9 0 -6 12 -6 29 -1 24 7 30 5 34 -10 3 -11 -1 -21 -9 -24 -8 -3 -14 -10 -14
-16 0 -6 5 -8 10 -5 6 3 10 1 10 -4 0 -6 8 -11 18 -11 11 0 32 -6 48 -14 90
-43 142 -66 152 -66 7 0 12 -6 12 -12 0 -22 58 -48 90 -42 16 4 59 1 97 -6
101 -19 180 -20 194 -4 6 8 21 11 39 8 15 -3 38 0 51 7 13 7 26 14 29 14 3 1
18 7 33 13 16 7 37 12 48 12 22 0 89 40 89 54 0 5 8 15 18 23 10 9 11 12 2 7
-9 -4 -12 -3 -7 2 5 5 12 9 15 10 4 0 20 6 35 12 16 7 32 12 36 12 5 0 14 7
21 15 11 13 10 14 -4 9 -12 -5 -15 -2 -10 10 3 9 10 13 15 10 9 -5 13 9 10 35
-2 7 2 10 8 6 7 -3 8 0 5 9 -3 9 -1 16 4 16 6 0 14 9 17 20 4 11 11 17 17 14
6 -4 5 2 -2 15 -6 12 -15 19 -19 16 -5 -2 -8 3 -7 12 3 39 -25 20 -54 -36 -33
-67 -118 -167 -160 -191 -15 -8 -46 -25 -69 -38 -42 -23 -172 -55 -226 -55
-60 -1 -195 16 -195 24 0 4 -23 6 -50 4 -46 -3 -50 -2 -45 15 4 14 -8 25 -66
54 -43 22 -79 34 -90 31 -13 -4 -19 -1 -19 8 0 20 -75 87 -98 87 -18 0 -79 75
-74 92 1 5 -11 21 -27 36 -17 15 -37 43 -45 64 -14 32 -14 37 0 49 20 16 42
20 49 9 3 -5 12 -7 20 -3 18 6 47 -15 39 -28 -3 -5 0 -9 5 -9 6 0 11 6 11 14
0 7 11 16 24 18 26 5 56 -12 56 -33 0 -11 2 -11 9 -1 6 10 13 6 26 -15 18 -28
66 -71 73 -65 1 2 31 -22 65 -53 34 -31 80 -68 103 -81 73 -43 183 -75 281
-81 87 -5 93 -4 116 19 13 13 42 30 64 37 22 7 46 22 54 33 8 11 29 40 46 64
23 29 33 54 33 78 0 38 25 76 50 76 12 0 12 2 2 9 -18 11 -12 53 8 59 12 4 13
2 3 -9 -18 -19 -16 -29 5 -23 13 5 14 4 3 -4 -7 -5 -11 -14 -7 -20 3 -6 2 -13
-3 -16 -5 -3 -8 -22 -7 -41 1 -19 -2 -35 -7 -35 -4 0 -5 -4 -2 -10 3 -5 2 -10
-3 -10 -9 0 -35 -50 -29 -56 1 -2 13 -1 26 3 14 3 20 11 17 20 -4 8 -1 11 5 7
6 -4 15 0 20 7 12 19 11 32 -1 24 -6 -3 -7 1 -4 9 3 9 10 14 14 11 9 -5 32 83
33 121 0 21 2 22 21 12 11 -7 26 -13 31 -13 6 -1 9 -6 7 -13 -3 -18 12 -14 44
10 15 13 25 17 21 11 -4 -6 -1 -13 5 -16 9 -3 7 -11 -7 -28 l-20 -24 25 22
c25 22 26 22 37 3 9 -13 9 -20 1 -22 -6 -2 -12 -12 -14 -21 -1 -9 2 -15 7 -11
5 3 9 -1 9 -9 0 -7 7 -14 15 -14 18 0 18 2 4 29 -8 14 -8 23 0 31 8 8 11 8 11
0 0 -6 6 -13 14 -16 11 -5 11 0 -2 24 -14 24 -15 31 -4 38 11 7 10 9 -3 14 -9
4 -13 3 -10 -2 3 -5 2 -12 -3 -15 -5 -3 -16 8 -25 24 -21 35 -10 45 47 41 36
-3 39 -1 27 13 -12 14 -12 16 3 10 9 -3 16 -12 16 -20 0 -13 12 -18 33 -15 4
0 7 -6 7 -14 0 -8 5 -16 10 -16 6 -1 16 -2 23 -3 6 -1 11 -7 10 -12 -1 -6 5
-11 12 -11 10 0 12 4 5 12 -5 7 -7 15 -3 18 3 4 1 7 -6 7 -7 0 -9 5 -6 10 4 6
10 8 15 5 5 -3 14 4 20 15 9 16 8 25 -1 36 -10 12 -10 15 2 12 8 -2 13 4 13
13 -2 20 29 19 38 -1 5 -11 7 -8 7 9 1 16 -3 21 -13 18 -8 -3 -20 2 -28 11
-12 15 -11 16 5 3 11 -9 17 -10 17 -2 0 6 8 11 18 11 14 0 15 2 2 10 -12 8
-11 10 8 10 12 0 22 -5 22 -11 0 -6 6 -9 14 -6 7 3 18 1 24 -5 8 -8 16 -8 27
2 10 8 15 9 15 1 0 -6 7 -11 16 -11 10 0 14 -6 11 -15 -4 -8 -1 -17 5 -21 6
-4 8 -3 5 3 -4 6 -1 13 7 16 11 4 13 -1 10 -21 -3 -23 -2 -24 6 -9 14 22 31
22 23 0 -5 -12 -3 -14 8 -9 8 4 6 1 -3 -7 -17 -13 -16 -14 10 -15 47 -1 61 -5
59 -15 -4 -17 20 -18 37 -2 23 23 21 28 -24 75 -22 23 -47 58 -56 78 -8 20
-21 48 -28 60 -13 24 -155 152 -168 152 -4 0 -14 -12 -22 -27 l-15 -28 -1 26
c0 28 -34 136 -57 184 l-14 30 19 -24 c28 -34 56 -37 48 -5 -9 35 -1 30 28
-19 13 -24 50 -63 80 -86 80 -62 213 -204 231 -247 8 -21 24 -44 35 -51 11 -8
20 -21 20 -28 0 -27 50 -126 60 -120 5 3 10 1 10 -4 0 -6 5 -11 11 -11 5 0 7
5 4 10 -3 6 -2 10 4 10 5 0 11 -6 14 -12 3 -10 7 -10 18 -2 8 6 22 10 32 9 20
-4 70 19 61 27 -3 3 6 8 19 12 14 3 28 13 31 22 5 12 2 15 -9 10 -10 -3 -13
-2 -10 5 4 5 16 7 27 3 17 -5 20 -3 15 10 -4 9 -2 16 3 16 4 0 14 16 20 35 6
19 15 35 19 35 4 0 6 29 5 64 -5 157 -122 345 -298 478 -152 115 -314 168
-413 134 -43 -15 -144 -104 -155 -137 -3 -8 -17 0 -41 21 -20 17 -37 29 -37
26 0 -4 -16 9 -35 29 -20 19 -42 35 -50 35 -8 0 -15 5 -15 10 0 6 -7 10 -15
10 -8 0 -15 4 -15 9 0 13 -148 77 -220 95 -102 25 -210 29 -249 10 -17 -9 -38
-13 -46 -10 -9 3 -15 0 -15 -8 0 -8 -9 -16 -20 -19 -11 -3 -20 -1 -20 4 0 5
-9 4 -19 -3 -11 -7 -17 -16 -15 -20 3 -4 -3 -8 -12 -8 -10 0 -15 -2 -12 -5 3
-3 -7 -19 -23 -35 -16 -16 -29 -36 -29 -44 0 -24 -13 -19 -46 15 -85 91 -267
198 -399 234 -80 21 -254 28 -330 12z m284 -48 c36 -5 72 -14 80 -20 11 -6 7
-7 -14 -2 -43 11 -167 6 -175 -7 -4 -7 -22 -8 -47 -4 -28 4 -49 1 -71 -10 -17
-9 -47 -16 -67 -16 -41 0 -64 -10 -118 -52 -23 -18 -35 -24 -31 -14 6 15 123
97 148 103 6 1 34 9 61 17 60 18 147 20 234 5z m156 -50 c5 -5 -5 -4 -23 2
-17 6 -32 13 -32 16 0 7 43 -8 55 -18z m-85 -2 c25 -7 50 -15 57 -20 6 -4 17
-6 25 -4 7 2 9 2 5 -1 -5 -2 4 -13 20 -23 15 -10 21 -19 14 -19 -13 0 -13 -2
-2 -12 11 -11 14 -10 18 0 4 10 8 10 19 1 8 -6 11 -16 7 -22 -3 -6 -1 -7 6 -3
15 10 41 -11 35 -27 -2 -7 6 -18 18 -26 23 -14 23 -14 4 7 -18 21 -18 21 14
17 33 -4 70 -30 70 -48 0 -6 -13 2 -30 18 -34 32 -41 23 -9 -11 11 -12 22 -39
24 -60 4 -39 3 -39 -33 -41 -46 -4 -130 -22 -159 -36 -13 -6 -36 -10 -53 -10
-16 0 -30 -4 -30 -9 0 -5 6 -6 13 -2 9 5 9 4 0 -6 -9 -10 -15 -11 -27 -1 -11
9 -14 8 -12 -6 0 -10 -5 -17 -11 -16 -7 2 -13 -2 -13 -7 0 -5 -9 -10 -19 -10
-11 0 -27 -7 -35 -16 -9 -8 -21 -12 -27 -8 -7 4 -6 -2 2 -17 11 -22 11 -23 -4
-10 -16 13 -22 8 -18 -13 1 -5 -4 -4 -12 3 -12 9 -16 8 -21 -5 -3 -9 -3 -21 1
-27 3 -7 -3 -3 -15 7 -12 11 -25 16 -29 13 -3 -4 0 -7 8 -7 12 0 12 -2 -1 -10
-9 -6 -17 -5 -23 3 -5 7 -6 3 -2 -10 3 -12 1 -25 -6 -29 -8 -5 -9 -3 -4 7 8
12 6 12 -8 1 -9 -8 -22 -10 -28 -6 -9 5 -10 2 -6 -9 3 -10 2 -17 -2 -17 -5 0
-11 6 -14 14 -3 8 -16 12 -32 10 -27 -2 -48 -14 -27 -14 6 0 9 -7 5 -17 -4
-11 -3 -14 5 -9 7 4 12 2 12 -3 0 -6 5 -11 11 -11 8 0 9 4 0 13 -6 8 -8 17 -4
20 14 14 21 6 19 -23 -1 -32 -7 -36 -36 -20 -17 9 -18 8 -4 -20 15 -29 12 -50
-7 -50 -5 0 -9 7 -9 15 0 8 -6 12 -14 9 -11 -4 -17 5 -22 30 -3 20 -10 36 -14
36 -5 0 -6 -9 -3 -20 3 -11 1 -20 -4 -20 -5 0 -9 14 -8 32 0 18 -6 33 -14 36
-8 3 -11 0 -7 -7 5 -7 1 -9 -8 -5 -14 5 -14 8 2 23 10 9 13 13 8 9 -17 -13
-29 -9 -17 5 13 16 5 28 -15 20 -20 -7 -17 7 4 24 15 13 15 13 -5 4 -28 -14
-46 -14 -38 0 4 5 0 18 -9 28 -9 10 -14 31 -13 53 2 20 0 35 -5 32 -12 -8 -9
11 4 24 9 9 9 12 -1 12 -8 0 -10 7 -6 21 5 16 4 19 -5 14 -9 -6 -11 -4 -4 6 4
8 9 19 10 26 7 43 31 87 67 123 53 52 92 73 124 67 16 -3 32 2 43 13 21 21 89
33 107 18 9 -7 17 -7 26 0 7 6 33 12 57 15 25 2 52 4 60 5 8 1 35 -4 60 -11z
m177 -64 l11 -23 -31 22 c-18 12 -34 23 -36 25 -3 2 7 2 21 1 14 -1 29 -11 35
-25z m800 -85 c72 -37 162 -105 174 -131 5 -12 20 -40 33 -62 13 -22 21 -46
18 -54 -4 -11 -1 -13 12 -8 10 4 24 7 33 7 10 0 13 6 9 17 -6 16 -5 16 11 1
10 -9 30 -19 45 -23 15 -4 30 -16 33 -26 3 -10 8 -28 11 -39 9 -34 -19 -23
-44 18 -13 20 -20 28 -17 17 4 -11 9 -32 12 -47 5 -23 3 -26 -16 -21 -20 5
-21 3 -11 -21 5 -14 7 -26 4 -26 -2 0 2 -12 9 -27 8 -16 13 -37 11 -47 -5 -34
-47 -106 -61 -106 -7 0 -13 -7 -13 -15 0 -9 -6 -12 -17 -8 -10 4 -14 2 -10 -4
15 -25 -113 -32 -133 -8 -7 8 -10 15 -7 15 3 0 -3 26 -13 58 -9 31 -16 72 -15
89 2 19 -1 30 -7 27 -5 -3 -7 -13 -4 -21 3 -8 3 -20 -1 -26 -4 -6 -8 -30 -9
-54 -1 -23 -9 -49 -17 -58 -19 -18 -34 -20 -20 -2 12 15 13 77 1 77 -4 0 -8 8
-9 18 -1 29 -17 -18 -18 -53 -1 -22 -4 -26 -10 -15 -6 8 -7 18 -4 24 3 5 1 6
-6 2 -6 -4 -22 5 -37 24 -14 17 -35 35 -47 41 -20 11 -20 11 1 -18 19 -27 20
-43 2 -43 -12 0 -70 57 -70 68 0 7 -5 12 -10 12 -7 0 -7 7 0 21 9 17 14 18 28
8 9 -6 2 2 -15 20 -18 17 -33 32 -33 34 0 3 21 -6 47 -19 26 -12 49 -21 51
-20 7 8 -12 36 -24 36 -8 0 -17 7 -21 16 -3 9 -19 30 -34 47 -16 17 -29 37
-29 44 0 6 -9 15 -20 18 -11 3 -20 10 -20 15 0 5 -9 17 -19 27 -39 37 -53 153
-18 153 7 0 24 13 37 28 33 37 81 52 160 49 47 -2 79 -10 117 -29z m57 26 c9
-3 16 -10 16 -16 0 -14 -43 -5 -48 10 -4 13 7 15 32 6z m114 -84 c2 -11 12
-25 23 -30 10 -6 19 -15 19 -21 0 -9 -44 19 -110 71 -21 17 -23 21 -10 29 20
13 74 -21 78 -49z m502 -10 c104 -64 128 -81 197 -149 81 -78 127 -150 130
-204 2 -21 9 -48 17 -59 8 -11 12 -28 9 -37 -7 -19 -43 -55 -43 -44 0 4 -5 1
-10 -8 -10 -17 -71 -19 -92 -2 -7 6 -30 14 -50 18 -21 4 -38 11 -38 16 0 5 -6
9 -13 9 -7 0 -28 16 -47 35 -19 19 -39 35 -46 35 -7 0 -15 8 -19 19 -3 10 -19
30 -35 45 -17 14 -30 32 -30 39 0 7 -9 18 -20 25 -11 7 -20 17 -20 24 0 6 -6
19 -14 27 -15 17 -55 85 -83 137 -18 36 -13 73 14 99 28 29 126 16 193 -25z
m150 -39 c66 -48 164 -143 182 -176 11 -20 11 -20 -13 0 -13 11 -46 42 -74 70
-27 28 -66 60 -85 72 -20 12 -46 34 -60 48 -21 23 -22 25 -5 19 11 -4 36 -19
55 -33z m-1473 -81 c-3 -13 0 -20 9 -20 8 0 15 -11 16 -25 4 -62 5 -60 -42
-62 -91 -3 -156 -35 -229 -112 -24 -25 -41 -41 -39 -36 9 26 51 85 60 85 6 0
8 9 5 20 -3 11 -2 18 2 16 12 -8 30 9 22 22 -5 9 -12 8 -29 -4 -12 -8 -19 -20
-16 -26 4 -6 2 -8 -4 -4 -6 3 -23 -5 -38 -19 -15 -14 -24 -25 -20 -25 11 0
-25 -48 -41 -54 -12 -5 -13 -4 -5 7 10 11 6 13 -18 12 -28 -2 -63 -32 -54 -46
2 -4 -3 -12 -11 -19 -8 -7 -12 -17 -8 -23 4 -6 1 -7 -6 -3 -7 5 -10 14 -7 22
3 8 1 14 -4 14 -6 0 -10 -7 -10 -16 0 -8 -5 -12 -11 -9 -7 5 -5 13 5 24 9 10
13 21 9 24 -3 4 -2 7 4 7 5 0 10 6 10 14 0 32 94 121 195 183 43 27 71 35 143
44 50 6 94 15 100 20 14 14 18 11 12 -11z m1107 -26 c3 -8 2 -12 -4 -9 -6 3
-10 10 -10 16 0 14 7 11 14 -7z m-2231 -39 c-3 -9 -8 -14 -10 -11 -3 3 -2 9 2
15 9 16 15 13 8 -4z m41 7 c3 -5 -1 -9 -9 -9 -8 0 -15 4 -15 9 0 4 4 8 9 8 6
0 12 -4 15 -8z m7 -39 c13 -16 12 -17 -3 -4 -10 7 -18 15 -18 17 0 8 8 3 21
-13z m1484 -73 c-3 -5 6 -17 20 -26 19 -13 23 -20 14 -30 -13 -16 -38 -7 -61
21 -25 29 -23 48 3 40 16 -5 19 -4 14 5 -5 9 -4 11 4 6 6 -4 9 -11 6 -16z
m-698 -122 c-3 -8 -6 -5 -6 6 -1 11 2 17 5 13 3 -3 4 -12 1 -19z m-74 -13 c-7
-21 -13 -19 -13 6 0 11 4 18 10 14 5 -3 7 -12 3 -20z m-108 -23 c-3 -3 -11 0
-18 7 -9 10 -8 11 6 5 10 -3 15 -9 12 -12z m12 -20 c-9 -10 -25 -18 -36 -19
-17 -1 -18 1 -8 11 6 8 17 12 23 9 7 -2 15 0 19 6 3 6 9 11 12 11 3 0 -1 -8
-10 -18z m637 -57 c-4 -8 -2 -15 4 -15 5 0 12 -7 15 -14 4 -10 1 -13 -9 -9 -7
3 -14 9 -14 15 0 5 -5 6 -11 2 -8 -4 -2 -12 15 -21 14 -7 26 -19 26 -26 0 -8
4 -7 10 3 16 24 49 -26 45 -67 -2 -25 1 -30 13 -26 24 10 9 -20 -16 -32 -12
-5 -22 -13 -22 -17 0 -12 6 -10 42 12 37 23 48 25 48 9 0 -5 -4 -8 -9 -4 -5 3
-12 1 -15 -4 -3 -5 6 -11 20 -14 19 -3 24 -1 20 10 -3 8 -1 11 5 8 5 -4 8 -12
6 -18 -3 -7 5 -23 17 -36 l21 -24 -22 14 c-13 8 -23 17 -23 22 0 4 -11 0 -25
-9 -35 -23 -31 -32 12 -30 24 1 38 -4 40 -14 4 -12 3 -12 -5 -1 -6 9 -12 10
-16 3 -8 -13 24 -31 42 -25 6 3 9 10 6 15 -5 7 -2 8 5 4 9 -6 9 -12 -3 -25 -9
-10 -13 -21 -10 -24 4 -4 1 -13 -5 -21 -7 -8 -10 -19 -8 -23 3 -5 -3 -10 -14
-10 -17 -2 -18 1 -8 13 6 8 9 17 5 21 -3 3 -6 0 -6 -8 0 -11 -2 -11 -10 1 -7
11 -5 17 8 22 14 5 13 7 -5 7 -12 1 -25 -3 -28 -9 -3 -5 -1 -10 5 -10 6 0 8
-4 5 -10 -3 -5 -2 -10 4 -10 5 0 8 -7 7 -15 -1 -9 -6 -14 -12 -13 -5 2 -8 8
-6 13 2 6 -7 0 -20 -11 -13 -12 -30 -20 -38 -17 -9 3 -8 0 3 -7 10 -6 28 -11
40 -10 33 3 47 1 46 -7 -1 -5 0 -10 1 -13 7 -19 7 -41 -1 -46 -5 -3 -9 4 -9
16 0 24 -47 47 -64 30 -6 -6 -6 -10 -1 -11 42 -3 73 -19 39 -19 -11 0 -26 -6
-33 -12 -10 -11 -11 -10 -6 5 7 16 -9 25 -18 10 -2 -5 -2 -3 -1 4 2 7 -4 10
-14 7 -10 -4 -7 2 8 15 21 17 22 21 7 21 -9 0 -22 -10 -28 -22 -8 -19 -18 -23
-54 -23 -44 0 -45 0 -22 17 14 11 26 13 32 7 14 -14 29 -11 16 4 -6 8 -8 16
-5 19 3 3 0 9 -7 14 -8 5 -10 3 -4 -6 6 -10 4 -12 -9 -7 -10 4 -24 7 -31 7 -7
0 -16 7 -19 16 -3 8 -2 12 3 9 5 -3 12 -1 15 4 10 15 -21 21 -56 10 -41 -11
-41 -11 -33 1 3 6 15 10 26 10 10 0 19 5 19 11 0 6 9 9 20 6 11 -3 23 -1 26 4
5 9 -11 14 -31 9 -5 -1 -18 -3 -27 -5 -26 -5 -30 23 -6 39 23 16 34 14 23 -3
-3 -6 -10 -9 -15 -6 -5 3 -11 1 -14 -4 -3 -5 1 -11 9 -15 8 -3 15 -1 15 4 0 5
7 10 15 12 13 3 13 6 1 31 -8 15 -13 27 -10 27 3 0 -1 6 -8 14 -7 7 -17 13
-23 11 -5 -1 -7 0 -2 2 4 3 5 9 1 14 -3 5 -13 5 -25 -2 -16 -8 -20 -7 -18 3 3
16 -11 50 -25 61 -7 6 -4 7 6 3 10 -3 20 -1 23 4 4 6 15 10 25 10 10 0 21 6
23 13 4 9 8 8 16 -3 8 -11 6 -16 -6 -21 -15 -5 -14 -6 3 -11 14 -4 20 0 21 13
1 10 -3 22 -9 25 -7 4 -5 10 3 16 11 8 10 8 -4 4 -11 -3 -20 0 -24 10 -8 21 6
32 18 14 8 -13 10 -13 18 0 7 10 6 17 -2 23 -8 6 -6 7 6 3 10 -3 23 -6 28 -6
6 0 7 -4 4 -10 -3 -5 1 -10 9 -10 13 0 14 3 4 19 -7 11 -15 18 -18 16 -13 -8
-6 29 9 47 19 22 22 23 15 3z m348 -45 c5 0 6 6 2 13 -4 6 2 3 13 -8 11 -11
18 -24 15 -29 -2 -4 -7 -4 -11 0 -3 5 -13 10 -21 12 -8 2 -17 8 -18 13 -2 5
-8 7 -12 4 -5 -3 -12 0 -16 6 -5 8 -3 9 6 4 10 -6 12 -3 7 11 -5 15 -3 14 9
-3 9 -13 21 -23 26 -23z m72 -34 c8 3 16 -3 20 -12 8 -22 -2 -33 -14 -14 -6 8
-10 11 -10 7 0 -4 -6 -2 -14 5 -8 7 -11 17 -8 23 3 5 7 4 9 -2 3 -7 10 -10 17
-7z m-56 -21 c-3 -3 -9 2 -12 12 -6 14 -5 15 5 6 7 -7 10 -15 7 -18z m-463
-25 c-6 -9 -9 -9 -16 1 -10 17 0 34 13 21 6 -6 7 -16 3 -22z m-25 -4 c0 -2 -7
-7 -16 -10 -8 -3 -12 -2 -9 4 6 10 25 14 25 6z m290 -26 c0 -5 -2 -10 -4 -10
-3 0 -8 5 -11 10 -3 6 -1 10 4 10 6 0 11 -4 11 -10z m219 -23 c8 -10 7 -14 -4
-14 -8 0 -16 6 -19 14 -3 7 -2 13 3 13 5 0 14 -6 20 -13z m11 -57 c0 -5 -5
-10 -11 -10 -5 0 -7 5 -4 10 3 6 8 10 11 10 2 0 4 -4 4 -10z m220 0 c12 -7 12
-12 2 -22 -10 -10 -15 -10 -22 2 -19 29 -9 39 20 20z m-710 -41 c0 7 5 9 10 6
6 -3 10 -11 10 -17 0 -6 -3 -8 -7 -5 -3 4 -11 3 -17 -3 -7 -5 -17 -5 -26 0
-12 8 -12 10 -1 10 8 0 11 6 7 18 -5 14 -4 14 9 -2 8 -11 15 -14 15 -7z m500
-3 c0 -3 -4 -8 -10 -11 -5 -3 -10 -1 -10 4 0 6 5 11 10 11 6 0 10 -2 10 -4z
m-145 -94 c-3 -3 -11 0 -18 7 -9 10 -8 11 6 5 10 -3 15 -9 12 -12z m-325 -32
c0 -5 -2 -10 -4 -10 -3 0 -8 5 -11 10 -3 6 -1 10 4 10 6 0 11 -4 11 -10z m205
-10 c3 -5 -1 -10 -10 -10 -9 0 -13 5 -10 10 3 6 8 10 10 10 2 0 7 -4 10 -10z
m81 -5 c-23 -18 -33 -19 -41 -5 -3 6 1 7 9 4 9 -3 16 -1 16 5 0 6 8 11 18 11
15 -1 15 -2 -2 -15z m14 -26 c-7 -11 -14 -18 -17 -15 -3 3 0 12 7 21 18 21 23
19 10 -6z m-240 6 c0 -7 -30 -13 -34 -7 -3 4 4 9 15 9 10 1 19 0 19 -2z m210
-15 c0 -5 -2 -10 -4 -10 -3 0 -8 5 -11 10 -3 6 -1 10 4 10 6 0 11 -4 11 -10z
m-186 -39 c4 -5 -3 -7 -14 -4 -23 6 -26 13 -6 13 8 0 17 -4 20 -9z m46 -1 c0
-5 -5 -10 -11 -10 -5 0 -7 5 -4 10 3 6 8 10 11 10 2 0 4 -4 4 -10z m445 -50
c3 -5 1 -10 -4 -10 -6 0 -11 5 -11 10 0 6 2 10 4 10 3 0 8 -4 11 -10z"/>
<path d="M1350 2191 c0 -5 7 -11 14 -14 10 -4 13 -1 9 9 -6 15 -23 19 -23 5z"/>
<path d="M640 1931 c0 -6 4 -13 10 -16 6 -3 7 1 4 9 -7 18 -14 21 -14 7z"/>
<path d="M694 1869 c-3 -6 1 -18 10 -27 9 -10 16 -12 16 -5 0 7 -5 15 -11 19
-8 4 -7 9 2 15 10 6 10 9 2 9 -6 0 -15 -5 -19 -11z"/>
<path d="M977 1793 c-10 -9 -9 -23 1 -23 5 0 9 7 9 15 0 17 -1 18 -10 8z"/>
<path d="M1637 1557 c-2 -6 0 -21 6 -32 8 -16 7 -18 -4 -7 -18 17 -34 15 -19
-3 7 -8 8 -15 2 -15 -5 0 -15 7 -22 15 -14 17 -25 12 -25 -13 0 -18 18 -42 31
-42 5 0 3 5 -4 12 -7 7 -12 19 -12 27 0 12 3 12 18 -2 15 -14 19 -14 37 2 26
22 29 38 11 56 -11 11 -15 12 -19 2z"/>
<path d="M1556 1542 c-5 -9 41 -8 51 1 3 4 -5 7 -20 7 -14 0 -28 -4 -31 -8z"/>
<path d="M1464 1482 c3 -5 0 -12 -6 -15 -10 -3 -10 -7 1 -20 7 -9 17 -15 21
-12 10 6 1 43 -13 52 -5 3 -7 1 -3 -5z"/>
<path d="M1645 1470 c-4 -6 -9 -8 -13 -6 -4 2 -13 -2 -19 -10 -8 -8 -9 -15 -3
-19 6 -3 10 -1 10 5 0 6 4 9 8 6 4 -2 13 4 20 15 7 10 10 19 8 19 -3 0 -8 -5
-11 -10z"/>
<path d="M1495 1450 c16 -52 60 -75 67 -35 4 19 1 22 -24 19 -16 -2 -27 0 -24
5 3 5 -2 15 -11 22 -14 12 -15 11 -8 -11z m50 -30 c3 -5 1 -10 -4 -10 -6 0
-11 5 -11 10 0 6 2 10 4 10 3 0 8 -4 11 -10z"/>
<path d="M1690 1430 c0 -5 5 -10 11 -10 5 0 7 -5 4 -11 -4 -6 2 -5 14 3 19 12
19 13 3 20 -25 10 -32 9 -32 -2z"/>
<path d="M1580 1419 c0 -5 9 -9 20 -9 11 0 20 2 20 4 0 2 -9 6 -20 9 -11 3
-20 1 -20 -4z"/>
<path d="M1648 1413 c7 -3 16 -2 19 1 4 3 -2 6 -13 5 -11 0 -14 -3 -6 -6z"/>
<path d="M1586 1364 c2 -19 -1 -24 -12 -20 -8 3 -12 2 -9 -3 3 -6 14 -9 25 -8
13 1 16 5 9 13 -7 8 -6 13 2 16 8 3 7 8 -4 16 -12 10 -14 8 -11 -14z"/>
<path d="M1645 1360 c-3 -5 -1 -10 4 -10 6 0 11 5 11 10 0 6 -2 10 -4 10 -3 0
-8 -4 -11 -10z"/>
<path d="M1744 1341 c4 -6 0 -11 -9 -11 -9 0 -13 -5 -10 -10 4 -6 13 -7 23 -1
9 4 24 6 32 3 20 -6 11 2 -19 18 -15 8 -21 8 -17 1z"/>
<path d="M1610 1315 c-7 -8 -17 -12 -23 -8 -6 3 -7 1 -3 -6 4 -6 0 -14 -9 -17
-12 -5 -13 -10 -4 -20 6 -7 8 -18 4 -24 -3 -5 -2 -10 4 -10 5 0 13 5 16 11 4
6 13 8 21 5 7 -3 16 0 20 6 4 6 3 8 -3 5 -14 -9 -47 18 -39 31 11 17 36 15 36
-4 0 -8 5 -12 11 -9 7 5 5 13 -5 24 -9 10 -13 21 -9 24 3 4 4 7 1 7 -3 0 -11
-7 -18 -15z"/>
<path d="M1690 1286 c0 -2 7 -9 15 -16 13 -11 14 -10 9 4 -5 14 -24 23 -24 12z"/>
<path d="M1676 1248 c3 -5 10 -6 15 -3 13 9 11 12 -6 12 -8 0 -12 -4 -9 -9z"/>
<path d="M620 2470 c-8 -5 -10 -10 -5 -10 6 0 17 5 25 10 8 5 11 10 5 10 -5 0
-17 -5 -25 -10z"/>
<path d="M2618 2463 c6 -2 18 -2 25 0 6 3 1 5 -13 5 -14 0 -19 -2 -12 -5z"/>
<path d="M2758 2433 c7 -3 16 -2 19 1 4 3 -2 6 -13 5 -11 0 -14 -3 -6 -6z"/>
<path d="M2928 2393 c7 -3 16 -2 19 1 4 3 -2 6 -13 5 -11 0 -14 -3 -6 -6z"/>
<path d="M376 2338 l-17 -33 23 26 c13 15 30 29 38 32 11 4 9 6 -5 6 -13 1
-27 -11 -39 -31z"/>
<path d="M302 2118 c-14 -14 -16 -38 -3 -38 5 0 11 11 13 25 6 29 6 29 -10 13z"/>
<path d="M2896 1508 c1 -13 3 -29 3 -35 1 -7 8 -13 16 -13 12 0 13 5 3 28 -17
39 -25 46 -22 20z"/>
<path d="M2512 1476 c4 -5 3 -15 -3 -23 -7 -7 -13 -24 -14 -38 -2 -17 1 -22
12 -18 12 5 12 7 1 14 -10 7 -8 13 10 27 23 17 23 19 5 32 -10 8 -15 10 -11 6z"/>
<path d="M2909 1440 c0 -8 -2 -39 -3 -67 -2 -40 0 -53 11 -53 31 0 37 90 8
119 -13 13 -15 13 -16 1z"/>
<path d="M2321 1403 c13 -13 23 -27 21 -29 -3 -5 44 -64 51 -64 2 0 4 7 4 15
0 8 -3 13 -6 11 -8 -5 -31 21 -24 27 3 3 10 4 16 3 7 -2 9 -1 6 1 -4 2 -5 12
-2 23 5 19 -16 30 -66 36 l-23 2 23 -25z m59 -7 c0 -3 -4 -8 -10 -11 -5 -3
-10 -1 -10 4 0 6 5 11 10 11 6 0 10 -2 10 -4z"/>
<path d="M2850 1425 c0 -5 5 -17 10 -25 5 -8 10 -10 10 -5 0 6 -5 17 -10 25
-5 8 -10 11 -10 5z"/>
<path d="M2956 1392 c-3 -6 0 -13 6 -15 10 -4 10 -8 -1 -15 -8 -6 -11 -17 -8
-27 4 -9 3 -14 -2 -11 -11 7 -43 -28 -34 -37 3 -4 1 -7 -6 -7 -6 0 -14 7 -17
15 -4 8 -10 12 -15 9 -5 -3 -9 3 -10 13 0 12 -2 13 -6 5 -3 -8 4 -22 16 -33
12 -11 19 -25 15 -31 -4 -6 -9 -5 -15 3 -7 11 -9 11 -9 -2 0 -9 8 -26 18 -38
l17 -21 28 23 c15 14 27 30 27 36 0 6 7 14 16 18 8 3 13 12 10 19 -3 8 0 14 6
14 9 0 9 3 0 12 -7 7 -12 21 -12 33 0 26 -15 50 -24 37z"/>
<path d="M750 1339 c0 -5 5 -7 10 -4 6 3 10 8 10 11 0 2 -4 4 -10 4 -5 0 -10
-5 -10 -11z"/>
<path d="M2195 1342 c-10 -7 -18 -32 -10 -32 2 0 9 9 15 20 12 22 11 24 -5 12z"/>
<path d="M2833 1335 c0 -8 4 -12 9 -9 4 3 8 9 8 15 0 5 -4 9 -8 9 -5 0 -9 -7
-9 -15z"/>
<path d="M1033 1268 c30 -72 193 -235 272 -272 33 -16 73 -34 89 -42 16 -8 35
-14 43 -14 19 0 16 20 -4 26 -35 11 -65 28 -55 32 6 2 24 -4 41 -12 35 -19 41
-19 41 -6 0 6 -6 10 -14 10 -7 0 -33 16 -57 35 -24 19 -51 35 -59 35 -9 0 -23
9 -33 20 -9 11 -23 20 -30 20 -19 0 -82 65 -141 144 -43 58 -56 70 -83 72
l-31 2 21 -50z"/>
<path d="M2828 1288 c-24 -29 -23 -41 2 -26 11 7 20 21 20 30 0 23 -1 22 -22
-4z"/>
<path d="M2360 1286 c0 -2 8 -10 18 -17 15 -13 16 -12 3 4 -13 16 -21 21 -21
13z"/>
<path d="M2434 1274 c1 -8 7 -19 14 -26 8 -8 11 -6 9 10 0 12 -7 24 -13 26 -7
3 -11 -2 -10 -10z"/>
<path d="M2326 1267 c3 -10 9 -15 12 -12 3 3 0 11 -7 18 -10 9 -11 8 -5 -6z"/>
<path d="M2970 1256 c0 -16 -56 -63 -71 -58 -5 1 -9 -2 -9 -7 0 -6 9 -9 20 -8
11 1 20 5 20 10 0 4 5 5 10 2 8 -5 7 -11 -1 -21 -6 -8 -9 -17 -6 -20 6 -6 42
54 42 71 0 6 4 15 8 22 4 6 3 14 -3 18 -5 3 -10 -1 -10 -9z m-8 -48 c-7 -7
-12 -8 -12 -2 0 14 12 26 19 19 2 -3 -1 -11 -7 -17z"/>
<path d="M2298 1253 c7 -3 16 -2 19 1 4 3 -2 6 -13 5 -11 0 -14 -3 -6 -6z"/>
<path d="M2345 1237 c-9 -4 -13 -13 -9 -19 4 -7 10 -5 16 3 7 11 11 11 15 2 2
-7 13 -13 24 -13 10 0 19 -5 19 -11 0 -5 5 -7 10 -4 7 4 3 14 -9 24 -11 10
-18 21 -15 24 9 9 -34 4 -51 -6z"/>
<path d="M2835 1240 c-3 -5 0 -7 8 -4 12 4 15 -3 13 -36 -3 -43 16 -52 19 -9
4 42 -24 76 -40 49z"/>
<path d="M2285 1210 c-3 -5 -1 -10 4 -10 6 0 11 5 11 10 0 6 -2 10 -4 10 -3 0
-8 -4 -11 -10z"/>
<path d="M2715 1200 c-3 -6 1 -7 9 -4 18 7 21 14 7 14 -6 0 -13 -4 -16 -10z"/>
<path d="M2670 1150 c-9 -6 -10 -10 -3 -10 6 0 15 5 18 10 8 12 4 12 -15 0z"/>
<path d="M58 783 c12 -2 32 -2 45 0 12 2 2 4 -23 4 -25 0 -35 -2 -22 -4z"/>
<path d="M248 773 c7 -3 16 -2 19 1 4 3 -2 6 -13 5 -11 0 -14 -3 -6 -6z"/>
<path d="M303 773 c15 -2 37 -2 50 0 12 2 0 4 -28 4 -27 0 -38 -2 -22 -4z"/>
<path d="M445 770 c-3 -5 1 -10 10 -10 9 0 13 5 10 10 -3 6 -8 10 -10 10 -2 0
-7 -4 -10 -10z"/>
<path d="M543 753 c9 -2 25 -2 35 0 9 3 1 5 -18 5 -19 0 -27 -2 -17 -5z"/>
<path d="M688 743 c7 -3 16 -2 19 1 4 3 -2 6 -13 5 -11 0 -14 -3 -6 -6z"/>
<path d="M733 743 c9 -2 23 -2 30 0 6 3 -1 5 -18 5 -16 0 -22 -2 -12 -5z"/>
<path d="M788 733 c7 -3 16 -2 19 1 4 3 -2 6 -13 5 -11 0 -14 -3 -6 -6z"/>
<path d="M903 733 c15 -2 39 -2 55 0 15 2 2 4 -28 4 -30 0 -43 -2 -27 -4z"/>
<path d="M1020 728 c0 -5 18 -8 40 -8 22 0 40 2 40 4 0 2 -18 6 -40 8 -22 2
-40 0 -40 -4z"/>
<path d="M1110 729 c0 -5 9 -9 20 -9 11 0 20 2 20 4 0 2 -9 6 -20 9 -11 3 -20
1 -20 -4z"/>
<path d="M1188 723 c7 -3 16 -2 19 1 4 3 -2 6 -13 5 -11 0 -14 -3 -6 -6z"/>
<path d="M1237 719 c7 -7 15 -10 18 -7 3 3 -2 9 -12 12 -14 6 -15 5 -6 -5z"/>
<path d="M1318 713 c12 -2 32 -2 45 0 12 2 2 4 -23 4 -25 0 -35 -2 -22 -4z"/>
<path d="M1395 710 c3 -5 8 -10 11 -10 2 0 4 5 4 10 0 6 -5 10 -11 10 -5 0 -7
-4 -4 -10z"/>
<path d="M1420 712 c0 -4 17 -8 38 -9 28 0 32 1 17 7 -26 11 -55 12 -55 2z"/>
<path d="M1503 708 c-2 -5 15 -8 39 -9 24 0 61 -3 83 -5 26 -3 36 -2 30 5 -12
11 -145 19 -152 9z"/>
<path d="M1683 693 c9 -2 23 -2 30 0 6 3 -1 5 -18 5 -16 0 -22 -2 -12 -5z"/>
<path d="M1730 696 c0 -2 16 -6 35 -8 19 -2 35 0 35 4 0 4 -16 8 -35 8 -19 0
-35 -2 -35 -4z"/>
<path d="M1830 688 c0 -4 21 -8 48 -7 52 1 48 6 -10 11 -21 2 -38 0 -38 -4z"/>
<path d="M1930 683 c0 -5 21 -8 48 -9 32 -1 41 1 27 7 -26 10 -75 11 -75 2z"/>
<path d="M2030 668 c0 -4 15 -5 33 -1 46 8 48 14 4 11 -20 -1 -37 -6 -37 -10z"/>
<path d="M2154 673 c10 -11 36 -12 36 -2 0 5 -10 9 -22 9 -12 0 -18 -3 -14 -7z"/>
<path d="M2253 663 c15 -2 37 -2 50 0 12 2 0 4 -28 4 -27 0 -38 -2 -22 -4z"/>
<path d="M2341 666 c2 -2 22 -6 44 -9 27 -4 35 -3 25 3 -14 9 -79 15 -69 6z"/>
<path d="M2498 653 c7 -3 16 -2 19 1 4 3 -2 6 -13 5 -11 0 -14 -3 -6 -6z"/>
<path d="M2548 653 c7 -3 16 -2 19 1 4 3 -2 6 -13 5 -11 0 -14 -3 -6 -6z"/>
<path d="M2588 653 c6 -2 18 -2 25 0 6 3 1 5 -13 5 -14 0 -19 -2 -12 -5z"/>
<path d="M2688 648 c5 -5 16 -8 23 -6 8 3 3 7 -10 11 -17 4 -21 3 -13 -5z"/>
<path d="M2738 643 c7 -3 16 -2 19 1 4 3 -2 6 -13 5 -11 0 -14 -3 -6 -6z"/>
<path d="M2788 643 c7 -3 16 -2 19 1 4 3 -2 6 -13 5 -11 0 -14 -3 -6 -6z"/>
<path d="M2830 639 c0 -5 5 -7 10 -4 6 3 10 8 10 11 0 2 -4 4 -10 4 -5 0 -10
-5 -10 -11z"/>
<path d="M2918 633 c6 -2 18 -2 25 0 6 3 1 5 -13 5 -14 0 -19 -2 -12 -5z"/>
<path d="M2978 633 c6 -2 18 -2 25 0 6 3 1 5 -13 5 -14 0 -19 -2 -12 -5z"/>
<path d="M3065 630 c3 -5 8 -10 11 -10 2 0 4 5 4 10 0 6 -5 10 -11 10 -5 0 -7
-4 -4 -10z"/>
<path d="M3157 629 c7 -7 15 -10 18 -7 3 3 -2 9 -12 12 -14 6 -15 5 -6 -5z"/>
<path d="M3108 623 c6 -2 18 -2 25 0 6 3 1 5 -13 5 -14 0 -19 -2 -12 -5z"/>
<path d="M3198 623 c6 -2 18 -2 25 0 6 3 1 5 -13 5 -14 0 -19 -2 -12 -5z"/>
<path d="M3270 620 c34 -11 50 -12 50 -2 0 4 -17 8 -37 9 -33 1 -35 0 -13 -7z"/>
<path d="M3340 614 c0 -8 5 -12 10 -9 6 3 10 10 10 16 0 5 -4 9 -10 9 -5 0
-10 -7 -10 -16z"/>
<path d="M3435 610 c-3 -5 -2 -10 4 -10 5 0 13 5 16 10 3 6 2 10 -4 10 -5 0
-13 -4 -16 -10z"/>
<path d="M3475 610 c-3 -5 1 -10 9 -10 9 0 16 5 16 10 0 6 -4 10 -9 10 -6 0
-13 -4 -16 -10z"/>
</g>
</svg>
